<?xml version="1.0" encoding="UTF-8"?>
<svg id="a" data-name="Layer 2" xmlns="http://www.w3.org/2000/svg" viewBox="0 0 504 108">
  <defs>
    <style>
      .b {
        fill: #00519f;
      }

      .c {
        fill: #808285;
      }

      .d {
        fill: #39b54a;
      }
    </style>
  </defs>
  <path class="d" d="m307.98,35.58l12.76,8.22-.21,1.09-15.81,7.19,3.26-16.5Zm-201.63-9.57c-1.55-.09-2.9-.04-4.02.14,3.76,1.45,6.9,2.91,9.23,4.1-1.33-1.17-3.09-2.63-5.2-4.24Zm-19.85-4.54c.72-.33,1.49-.62,2.31-.87-1.24-.03-2.5-.02-3.78,0-.61.08-1.2.18-1.79.28,1.1.19,2.2.38,3.25.59Zm16.44,2.07c-.69-.48-1.41-.96-2.15-1.45-3.59-.24-6.85-.08-9.57.48,2.6.68,5.05,1.42,7.32,2.2,1.15-.66,2.63-1.06,4.39-1.23Zm7.22,10.62c-2.76-.82-6.64-1.84-11.37-2.74.25.61.61,1.27,1.06,1.96,4.12.06,7.6.39,10.32.78Zm-71.56,2.84c.12-.26.26-.52.39-.78-3.56,1.44-7.11,3.15-10.63,5.16l-5.42,23.65c4.77-4.3,9.52-8.01,14.18-11.23-.92-4.21-1.41-10.54,1.48-16.8Zm.78,15.27c8-5.3,15.74-9.15,22.92-11.93-.51-3.13-.23-6.14.94-8.93.21-.5.44-.98.7-1.46-6.85.78-14,2.29-21.19,4.84-.73,1.03-1.37,2.12-1.89,3.25-2.37,5.13-2.18,10.41-1.49,14.23Zm41.81-17.31c-.7-1.98-.97-3.87-.8-5.63-4.22-.15-8.68-.08-13.3.31-.61.87-1.13,1.78-1.54,2.74-.92,2.19-1.17,4.56-.84,7.06,5.96-2.15,11.51-3.56,16.48-4.48Zm2.51-.43c.83-.13,1.65-.25,2.44-.36,3.92-.51,7.55-.75,10.84-.8-.43-.86-.74-1.68-.92-2.44-3.95-.66-8.39-1.21-13.18-1.48-.18,1.54.12,3.26.82,5.08Zm18.11,1.41c.5.57,1.05,1.15,1.66,1.75,3.63-.56,6.57-.68,8.73-.63v-.03c-2.45-.44-5.99-.92-10.39-1.1Zm-17,.95c.89,1.62,2.07,3.29,3.49,4.98,1.05-.41,2.1-.8,3.15-1.16,3.3-1.13,6.31-1.92,9.02-2.48-.74-.81-1.39-1.6-1.94-2.36-3.63,0-7.73.21-12.2.8-.5.06-1.01.14-1.52.21Zm-2.62.43c-5.08.9-10.8,2.35-16.97,4.59.84,3.01,2.48,6.15,4.83,9.32,5.06-3.21,10.33-6.07,15.77-8.37-1.5-1.88-2.73-3.74-3.63-5.55Zm-44.4,19.05c-5.2,3.65-10.51,7.94-15.84,12.97l-4.08,17.81h12.04c4.47-5.19,9.71-10.83,15.55-16.39-2.91-3.97-5.21-7.99-6.78-11.97-.05-.11-.44-.99-.88-2.43Zm9.51,12.67c6.27-5.82,13.21-11.49,20.64-16.42-2.43-3.3-4.15-6.61-5.08-9.81-7.16,2.8-14.88,6.69-22.88,12.07.5,1.8.99,2.91,1,2.95,1.48,3.73,3.62,7.5,6.32,11.22Zm61.32-23.9c-2.61,1.53-5.79,3.62-9.54,6.45,2.07,1.48,4.29,2.91,6.64,4.27l3.27-4.8,1.13-4.91c-.52-.34-1.02-.68-1.5-1.02Zm-14.97,28.4c-4.21-2.29-8.06-4.74-11.53-7.27-5.49,5.3-11.62,11.71-18.4,19.43.63.49,1.26.98,1.91,1.46h18.73l9.29-13.62Zm10.66-15.61c-2.62-1.51-5.06-3.1-7.32-4.73-3.81,2.99-8.14,6.7-13,11.29,3.34,2.43,7.05,4.77,11.09,6.97l9.24-13.53Zm-.93,17.63l3.69-16.1c-.19-.1-.38-.21-.57-.31l-9.21,13.48c1.69.88,3.43,1.73,5.23,2.55.29.13.57.25.86.38Zm-7.5-.84l-8.49,12.44h13.33l2.09-9.12c-.44-.2-.88-.38-1.33-.58-1.93-.88-3.8-1.8-5.61-2.74Zm12.88-32.61c.95-.53,1.82-.98,2.61-1.36l.27-1.16c-1.51,0-3.41.09-5.64.35.85.72,1.78,1.44,2.76,2.17Zm-11.8,7.88c3.63-2.78,6.77-4.89,9.41-6.49-1.37-1.04-2.6-2.06-3.68-3.06-3.56.64-7.76,1.72-12.52,3.49,1.94,2.04,4.22,4.08,6.79,6.06Zm-15.02,12.96c4.82-4.58,9.13-8.32,12.95-11.35-2.78-2.18-5.23-4.42-7.28-6.67-4.83,1.98-10.18,4.66-15.96,8.3,2.73,3.28,6.2,6.56,10.29,9.73Zm-34.96,9.79c-4.45,4.25-9.04,9.02-13.75,14.41h25.92c.33-.39.66-.76.99-1.14-5.11-4.22-9.55-8.69-13.16-13.27Zm33.11-8.02c-4.22-3.28-7.79-6.69-10.6-10.12-6.42,4.21-13.35,9.59-20.68,16.41,3.54,4.51,7.91,8.93,12.97,13.1,6.73-7.68,12.83-14.07,18.32-19.39Zm19.33-37.55c-.38.28-.66.59-.84.95-.1.21-.17.43-.21.67,4.25.77,7.89,1.66,10.71,2.44-2.54-1.24-5.82-2.67-9.66-4.06Zm-18.45-.32c.1-.26.21-.52.33-.77.59-1.18,1.47-2.21,2.6-3.09-1.87-.34-3.8-.63-5.78-.86-3.5,1.15-6.42,2.78-8.66,4.83,3.98-.24,7.84-.26,11.5-.11Zm-36.1,1.94c-4.99,2-10.1,4.42-15.3,7.35l-.45,1.95c4.01-2.16,8.05-3.95,12.09-5.41,1.05-1.39,2.27-2.68,3.66-3.88Zm20.89-1.56c1.78-2.2,4.13-4.06,6.97-5.54-.42-.02-.83-.05-1.26-.07-4.53.64-9.26,1.6-14.14,2.95-4.6,1.69-8.35,3.86-11.25,6.48,6.7-2.03,13.33-3.22,19.67-3.82Zm17.9-.25c4.42.28,8.54.78,12.26,1.38.08-.49.22-.95.43-1.36.13-.26.29-.5.46-.73-2.84-.94-5.96-1.81-9.28-2.55-1.79.81-3.12,1.9-3.87,3.27Zm21.34-4.46c.45.32.88.63,1.31.95,2.55.14,5.47.64,8.68,1.51l.05-.2c-3.46-1.05-6.84-1.79-10.04-2.25Zm8.92,7.14l.51-2.24c-1.51-.41-2.92-.72-4.24-.96,1.52,1.23,2.77,2.33,3.72,3.2Z"/>
  <path class="b" d="m129.6,28.59h29.44c9.76,0,12.45,3.2,10.66,11.04l-2.2,9.64c-1.79,7.85-5.95,11.04-15.71,11.04h-29.44l7.25-31.73Zm4.37,23.58h17.31c4.17,0,6.07-1.18,7.1-5.7l.98-4.29c1.03-4.51-.32-5.7-4.5-5.7h-17.31l-3.59,15.69Zm42.13-23.58h9.76l-4.19,18.32c-.92,4.03.17,5.61,4.17,5.61h9.67c4,0,5.81-1.58,6.73-5.61l4.19-18.32h9.76l-4.67,20.42c-1.8,7.89-6.75,11.66-15.72,11.66h-13.97c-8.96,0-12.19-3.77-10.39-11.66l4.67-20.42Zm43.77,0h29.44c7.51,0,8.68,3.72,7.38,9.42l-.46,2.02c-.97,4.25-2.51,6.75-7.23,7.8l-.02.09c2.78.53,4.91,1.8,3.71,7.01l-1.23,5.39h-9.76l.87-3.81c.76-3.33.04-4.43-2.99-4.43h-15.34l-1.88,8.24h-9.76l7.25-31.73Zm6.19,15.6h16.13c2.64,0,3.84-1.05,4.37-3.33l.24-1.05c.64-2.8-.65-3.33-3.72-3.33h-15.25l-1.76,7.71Zm33.23-4.47c2.12-9.29,7.85-11.48,16.64-11.48h15.64c8.79,0,13.52,2.19,11.39,11.48l-2.16,9.46c-2.12,9.29-7.85,11.48-16.64,11.48h-15.64c-8.79,0-13.52-2.19-11.39-11.48l2.16-9.46Zm8.55,6.44c-1.05,4.6-.49,6.35,4.13,6.35h12.48c4.61,0,5.98-1.75,7.03-6.35l.78-3.42c.9-3.94.49-6.35-4.66-6.35h-11.43c-5.14,0-6.66,2.41-7.56,6.35l-.78,3.42Zm61.23-17.57h9.76l-5.39,23.58h21.93l-1.86,8.15h-31.69l7.25-31.73Zm49.66,0h12.7l10.24,31.73h-10.85l-1.75-5.61h-19.78l-4.14,5.61h-10.9l24.48-31.73Zm-4.23,19.28h12.48l-3.6-11.92-8.88,11.92Zm28.66,2.06h9.76c-.73,3.37.58,3.64,3.39,3.64h11.95c2.06,0,4.22-.22,4.79-2.67.63-2.76-.47-2.94-13.04-2.94-14.68,0-15.95-1.75-14.16-9.55,1.31-5.74,2.85-10.17,15.16-10.17h13.62c11.25,0,11.43,3.81,10.16,9.38l-.23,1.01h-9.76c.53-2.32.49-3.29-3.99-3.29h-10.81c-2.2,0-3.86.75-4.25,2.46-.63,2.76.54,2.85,11,2.8,15.17-.04,18.48.88,16.36,10.12-1.96,8.55-5.18,9.95-18.14,9.95h-11.82c-8.88,0-12.05-1.66-10.48-8.55l.5-2.19Zm45.79-21.34h37.18l-1.8,7.89h-13.71l-5.45,23.84h-9.76l5.45-23.84h-13.71l1.8-7.89Z"/>
  <g>
    <path class="c" d="m351.59,77.63c-2.89,0-5.7,2.22-6.28,4.94-.58,2.72,1.28,4.94,4.16,4.94s5.69-2.22,6.27-4.94c.58-2.72-1.3-4.94-4.16-4.94Zm2.77,4.94c-.45,2.1-2.6,3.62-4.61,3.62s-3.5-1.52-3.05-3.62c.45-2.11,2.57-3.62,4.61-3.62s3.51,1.51,3.05,3.62Z"/>
    <path class="c" d="m351.66,79.73h-2.72l-1.15,5.38h1.25l.47-2.19h.82l.78,2.19h1.43l-.91-2.19c1.03-.12,1.65-.51,1.86-1.5.12-.55.09-1.14-.36-1.44-.36-.24-.99-.25-1.47-.25Zm-.45,2.21h-1.5l.26-1.22h1.22c.54,0,1.12,0,1,.55-.12.54-.37.68-.99.67Z"/>
  </g>
  <g>
    <path class="b" d="m481.29,50.63c-2.89,0-5.7,2.22-6.28,4.94s1.28,4.94,4.16,4.94,5.69-2.22,6.27-4.94c.58-2.72-1.3-4.94-4.16-4.94Zm2.77,4.94c-.45,2.1-2.6,3.62-4.61,3.62s-3.5-1.52-3.05-3.62c.45-2.11,2.57-3.62,4.61-3.62s3.51,1.51,3.05,3.62Z"/>
    <path class="b" d="m481.37,52.73h-2.72l-1.15,5.38h1.25l.47-2.19h.82l.78,2.19h1.43l-.91-2.19c1.03-.12,1.65-.51,1.86-1.5.12-.55.09-1.14-.36-1.44-.36-.24-.99-.25-1.47-.25Zm-.45,2.21h-1.5l.26-1.22h1.22c.54,0,1.12,0,1,.55-.12.54-.37.68-.99.67Z"/>
  </g>
  <g>
    <path class="c" d="m127.24,78.62h6.56l-.53,1.98h-6.56l-1.06,3.96h6.98l-.6,2.23h-9.68l3.77-14.06h9.61l-.6,2.23h-6.92l-.98,3.65Z"/>
    <path class="c" d="m139.45,84.44h6.56l-.63,2.36h-9.26l3.77-14.06h2.7l-3.14,11.7Z"/>
    <path class="c" d="m151.52,86.8h-2.7l3.77-14.06h2.7l-3.77,14.06Z"/>
    <path class="c" d="m161.81,86.8h-2.7l3.14-11.7h-4.07l.63-2.36h10.92l-.63,2.36h-4.15l-3.14,11.7Z"/>
    <path class="c" d="m174.39,78.62h6.56l-.53,1.98h-6.56l-1.06,3.96h6.98l-.6,2.23h-9.68l3.77-14.06h9.61l-.6,2.23h-6.92l-.98,3.65Z"/>
    <path class="c" d="m203.39,81.78l-.13.48c-.56,2.11-.99,2.89-1.94,3.61-.56.42-1.39.78-2.21.93-.46.06-1.72.13-2.96.13-2.42,0-3.05-.1-3.84-.63-1.05-.65-1.29-1.71-.9-3.71.15-.8.57-2.53.92-3.82.79-2.93,1.35-4.01,2.54-4.91,1.33-1.01,2.44-1.24,5.86-1.24,2.23,0,3.07.19,3.62.8.45.51.62,1.24.47,2.28-.05.34-.14.76-.38,1.73h-2.68c.56-2.26.37-2.49-2.03-2.49-1.79,0-2.61.15-3.14.55-.45.36-.74.86-1.07,1.94q-.12.36-.63,2.28c-1.24,4.62-1.13,4.91,1.89,4.91,2.74,0,3.3-.34,3.8-2.23.03-.13.08-.32.14-.59h2.68Z"/>
    <path class="c" d="m219.36,73.08c1.11.57,1.56,1.58,1.39,3.23-.06.63-.24,1.45-.74,3.33-.9,3.37-1.28,4.3-2.15,5.35-.74.89-1.83,1.5-3.17,1.75-.6.13-1.74.19-3.11.19-2.09,0-3.1-.17-3.84-.63-.95-.61-1.28-1.52-1.12-3.08.07-.65.23-1.33.7-3.08.97-3.63,1.4-4.66,2.33-5.69.75-.82,1.83-1.41,3.05-1.64.58-.13,1.76-.19,3.02-.19,2,0,2.9.13,3.63.46Zm-9.35,7.27c-.66,2.47-.73,3.1-.38,3.69.28.46.88.57,3.03.57s2.7-.23,3.33-1.24c.44-.7.56-1.05,1.26-3.69.59-2.21.61-2.28.68-2.93.09-.82-.1-1.35-.57-1.58-.41-.19-.93-.23-2.51-.23-1.71,0-2.3.11-2.87.55-.58.44-.97,1.18-1.36,2.57l-.62,2.3Z"/>
    <path class="c" d="m235.25,86.8h-4.53l-1.96-7.72c-.11-.53-.23-1.1-.56-3.04l-.2-.99h-.08l-.22.91c-.3,1.35-.33,1.45-.68,2.76l-2.16,8.07h-2.66l3.77-14.06h4.51l1.76,7.13c.25,1.05.32,1.41.72,3.44l.24,1.16h.08l.22-.91c.29-1.31.32-1.41.67-2.72l2.17-8.1h2.68l-3.77,14.06Z"/>
    <path class="c" d="m245.53,86.8h-2.7l3.14-11.7h-4.07l.63-2.36h10.92l-.63,2.36h-4.15l-3.14,11.7Z"/>
    <path class="c" d="m256.99,72.74h6.92c3.39,0,4.27,1.05,3.43,4.2-.75,2.8-1.44,3.56-3.59,3.96l-.03.11c1.58.08,2.13,1.03,1.65,2.74l-.82,3.06h-2.72l.68-2.53c.45-1.54-.02-2.19-1.53-2.15h-3.8l-1.25,4.68h-2.7l3.77-14.06Zm4.57,7.08c.84,0,1.43-.13,1.82-.42.54-.36.76-.78,1.08-1.98.53-1.98.3-2.36-1.43-2.36h-3.96l-1.28,4.76h3.77Z"/>
    <path class="c" d="m272.31,84.1l-1.59,2.7h-2.83l8.45-14.06h3.99l1,14.06h-2.76l-.18-2.7h-6.07Zm5.53-9.3l-4.36,7.29h4.83l-.47-7.29Z"/>
    <path class="c" d="m297.24,81.78l-.13.48c-.56,2.11-.99,2.89-1.94,3.61-.56.42-1.39.78-2.21.93-.46.06-1.72.13-2.96.13-2.42,0-3.05-.1-3.84-.63-1.05-.65-1.29-1.71-.9-3.71.15-.8.57-2.53.92-3.82.79-2.93,1.35-4.01,2.54-4.91,1.33-1.01,2.44-1.24,5.86-1.24,2.23,0,3.07.19,3.62.8.45.51.62,1.24.47,2.28-.05.34-.14.76-.38,1.73h-2.68c.56-2.26.37-2.49-2.03-2.49-1.79,0-2.61.15-3.14.55-.45.36-.74.86-1.07,1.94q-.12.36-.63,2.28c-1.24,4.62-1.13,4.91,1.89,4.91,2.74,0,3.3-.34,3.8-2.23.03-.13.08-.32.14-.59h2.68Z"/>
    <path class="c" d="m305.69,86.8h-2.7l3.14-11.7h-4.07l.63-2.36h10.92l-.63,2.36h-4.15l-3.14,11.7Z"/>
    <path class="c" d="m326.76,73.08c1.11.57,1.56,1.58,1.39,3.23-.06.63-.24,1.45-.74,3.33-.9,3.37-1.28,4.3-2.15,5.35-.74.89-1.83,1.5-3.17,1.75-.6.13-1.74.19-3.11.19-2.09,0-3.1-.17-3.84-.63-.95-.61-1.28-1.52-1.12-3.08.07-.65.23-1.33.7-3.08.97-3.63,1.4-4.66,2.33-5.69.75-.82,1.83-1.41,3.05-1.64.58-.13,1.76-.19,3.02-.19,2,0,2.9.13,3.63.46Zm-9.35,7.27c-.66,2.47-.73,3.1-.38,3.69.28.46.88.57,3.03.57s2.7-.23,3.33-1.24c.44-.7.56-1.05,1.26-3.69.59-2.21.61-2.28.68-2.93.09-.82-.1-1.35-.57-1.58-.41-.19-.93-.23-2.51-.23-1.71,0-2.3.11-2.87.55-.58.44-.97,1.18-1.36,2.57l-.62,2.3Z"/>
    <path class="c" d="m333.36,72.74h6.92c3.39,0,4.27,1.05,3.43,4.2-.75,2.8-1.44,3.56-3.59,3.96l-.03.11c1.58.08,2.13,1.03,1.65,2.74l-.82,3.06h-2.72l.68-2.53c.45-1.54-.02-2.19-1.53-2.15h-3.8l-1.25,4.68h-2.7l3.77-14.06Zm4.57,7.08c.84,0,1.43-.13,1.82-.42.54-.36.76-.78,1.08-1.98.53-1.98.3-2.36-1.43-2.36h-3.96l-1.28,4.76h3.77Z"/>
  </g>
</svg>