<?xml version="1.0" encoding="UTF-8"?>
<svg id="b" data-name="Layer 2" xmlns="http://www.w3.org/2000/svg" xmlns:xlink="http://www.w3.org/1999/xlink" viewBox="0 0 1216 243">
  <defs>
    <style>
      .n {
        filter: url(#j);
      }

      .n, .o, .p, .q, .r {
        fill: #f33;
        stroke: #000;
        stroke-miterlimit: 10;
        stroke-width: 8.17px;
      }

      .o {
        filter: url(#f);
      }

      .p {
        filter: url(#d);
      }

      .q {
        filter: url(#h);
      }

      .r {
        filter: url(#l);
      }
    </style>
    <filter id="d" data-name="drop-shadow-1" filterUnits="userSpaceOnUse">
      <feOffset dx="8.38" dy="8.38"/>
      <feGaussianBlur result="e" stdDeviation="8.38"/>
      <feFlood flood-color="#000" flood-opacity=".37"/>
      <feComposite in2="e" operator="in"/>
      <feComposite in="SourceGraphic"/>
    </filter>
    <filter id="f" data-name="drop-shadow-2" filterUnits="userSpaceOnUse">
      <feOffset dx="8.38" dy="8.38"/>
      <feGaussianBlur result="g" stdDeviation="8.38"/>
      <feFlood flood-color="#000" flood-opacity=".37"/>
      <feComposite in2="g" operator="in"/>
      <feComposite in="SourceGraphic"/>
    </filter>
    <filter id="h" data-name="drop-shadow-3" filterUnits="userSpaceOnUse">
      <feOffset dx="8.38" dy="8.38"/>
      <feGaussianBlur result="i" stdDeviation="8.38"/>
      <feFlood flood-color="#000" flood-opacity=".37"/>
      <feComposite in2="i" operator="in"/>
      <feComposite in="SourceGraphic"/>
    </filter>
    <filter id="j" data-name="drop-shadow-4" filterUnits="userSpaceOnUse">
      <feOffset dx="8.38" dy="8.38"/>
      <feGaussianBlur result="k" stdDeviation="8.38"/>
      <feFlood flood-color="#000" flood-opacity=".37"/>
      <feComposite in2="k" operator="in"/>
      <feComposite in="SourceGraphic"/>
    </filter>
    <filter id="l" data-name="drop-shadow-5" filterUnits="userSpaceOnUse">
      <feOffset dx="8.38" dy="8.38"/>
      <feGaussianBlur result="m" stdDeviation="8.38"/>
      <feFlood flood-color="#000" flood-opacity=".37"/>
      <feComposite in2="m" operator="in"/>
      <feComposite in="SourceGraphic"/>
    </filter>
  </defs>
  <g id="c" data-name="Layer 1">
    <g>
      <path class="p" d="m960.55,24.61h101.07l4.32,131.98h109.37l1.45,44.33h-210.43l-5.77-176.31Z"/>
      <path class="o" d="m786.72,24.61h101.07l4.32,131.98h109.37l1.45,44.33h-210.43l-5.77-176.31Z"/>
      <path class="q" d="m572.39,24.61h217.76l1.45,44.33h-116.69l.79,24.18h106.93l1.34,41.05h-106.93l.73,22.42h121.57l1.45,44.33h-222.64l-5.77-176.31Z"/>
      <path class="n" d="m324.83,24.61h145.99c19.2,0,36.58,1.3,52.12,3.9,15.54,2.61,28.77,6.38,39.68,11.33,10.9,4.95,19.31,10.92,25.24,17.88,5.92,6.97,9.03,14.9,9.32,23.8l.08,2.52c.36,11.08-4.2,20.99-13.67,29.72-9.48,8.73-21.96,15.11-37.46,19.14l75.95,68h-114.25l-56.09-57.93h-21.97l1.9,57.93h-101.07l-5.77-176.31Zm127.67,81.86c14.32,0,25.64-1.97,33.98-5.92,8.33-3.94,12.41-8.77,12.22-14.48l-.07-2.01c-.18-5.37-4.47-9.65-12.87-12.85-8.4-3.19-19.61-4.79-33.6-4.79h-28.81l1.31,40.05h27.83Z"/>
      <path class="r" d="m173.51,204.19c-22.79,0-43.36-2.1-61.72-6.3-18.37-4.2-34.19-10.2-47.46-18.01-13.28-7.81-23.59-17.17-30.95-28.08-7.36-10.91-11.25-23-11.68-36.27l-.15-4.53c-.43-13.26,3.32-25.4,11.26-36.39,7.94-11,19.35-20.48,34.22-28.46,14.88-7.97,32.81-14.14,53.83-18.51,21.01-4.36,44.38-6.55,70.09-6.55h6.35c29.61,0,56.83,3.44,81.63,10.33,24.8,6.89,46.21,16.96,64.22,30.22l-76.3,25.69c-9.05-8.06-19.09-13.85-30.11-17.38-11.02-3.53-22.88-5.29-35.57-5.29h-6.35c-10.74,0-20.39,1.13-28.94,3.4-8.55,2.27-15.86,5.42-21.91,9.45-6.06,4.03-10.62,8.86-13.69,14.48-3.07,5.63-4.5,11.8-4.28,18.51l.17,5.29c.46,13.94,7.16,24.93,20.12,32.99,12.96,8.06,30.83,12.09,53.61,12.09h6.84c7.16,0,13.9-.54,20.21-1.64,6.31-1.09,11.88-2.43,16.71-4.03,4.83-1.59,8.68-3.31,11.55-5.16,2.87-1.85,4.28-3.53,4.23-5.04l-.07-2.27h-57.12l-1.34-40.8h146.96l3.24,98.98h-71.28c-2.33-1.51-4.45-4.16-6.36-7.93-1.92-3.78-3.1-7.43-3.53-10.96-2.51,3.02-6.64,5.88-12.41,8.56-5.77,2.69-12.61,5.04-20.52,7.05-7.91,2.01-16.57,3.61-25.96,4.79-9.41,1.17-18.98,1.76-28.75,1.76h-8.79Z"/>
    </g>
  </g>
</svg>