<?xml version="1.0" encoding="UTF-8"?>
<svg id="g" data-name="Monogram" xmlns="http://www.w3.org/2000/svg" xmlns:xlink="http://www.w3.org/1999/xlink" viewBox="0 0 3367.73 553.62">
  <defs>
    <style>
      .r {
        filter: url(#j);
      }

      .r, .s, .t, .u, .v {
        fill: #f33;
        stroke: #000;
        stroke-miterlimit: 10;
        stroke-width: 23.64px;
      }

      .s {
        filter: url(#p);
      }

      .t {
        filter: url(#n);
      }

      .u {
        filter: url(#h);
      }

      .v {
        filter: url(#l);
      }
    </style>
    <filter id="h" data-name="drop-shadow-2" filterUnits="userSpaceOnUse">
      <feOffset dx="24.25" dy="24.25"/>
      <feGaussianBlur result="i" stdDeviation="24.25"/>
      <feFlood flood-color="#000" flood-opacity=".37"/>
      <feComposite in2="i" operator="in"/>
      <feComposite in="SourceGraphic"/>
    </filter>
    <filter id="j" data-name="drop-shadow-3" filterUnits="userSpaceOnUse">
      <feOffset dx="24.25" dy="24.25"/>
      <feGaussianBlur result="k" stdDeviation="24.25"/>
      <feFlood flood-color="#000" flood-opacity=".37"/>
      <feComposite in2="k" operator="in"/>
      <feComposite in="SourceGraphic"/>
    </filter>
    <filter id="l" data-name="drop-shadow-4" filterUnits="userSpaceOnUse">
      <feOffset dx="24.25" dy="24.25"/>
      <feGaussianBlur result="m" stdDeviation="24.25"/>
      <feFlood flood-color="#000" flood-opacity=".37"/>
      <feComposite in2="m" operator="in"/>
      <feComposite in="SourceGraphic"/>
    </filter>
    <filter id="n" data-name="drop-shadow-5" filterUnits="userSpaceOnUse">
      <feOffset dx="24.25" dy="24.25"/>
      <feGaussianBlur result="o" stdDeviation="24.25"/>
      <feFlood flood-color="#000" flood-opacity=".37"/>
      <feComposite in2="o" operator="in"/>
      <feComposite in="SourceGraphic"/>
    </filter>
    <filter id="p" data-name="drop-shadow-6" filterUnits="userSpaceOnUse">
      <feOffset dx="24.25" dy="24.25"/>
      <feGaussianBlur result="q" stdDeviation="24.25"/>
      <feFlood flood-color="#000" flood-opacity=".37"/>
      <feComposite in2="q" operator="in"/>
      <feComposite in="SourceGraphic"/>
    </filter>
  </defs>
  <path class="u" d="m2729.74,22.03h292.53l12.5,382h316.55l4.2,128.3h-609.08l-16.7-510.3Z"/>
  <path class="r" d="m2226.63,22.03h292.53l12.5,382h316.55l4.2,128.3h-609.08l-16.7-510.3Z"/>
  <path class="v" d="m1606.26,22.03h630.27l4.2,128.3h-337.74l2.29,69.98h309.48l3.89,118.83h-309.48l2.12,64.88h351.88l4.2,128.3h-644.41l-16.7-510.3Z"/>
  <path class="t" d="m889.73,22.03h422.54c55.58,0,105.86,3.77,150.87,11.3,44.99,7.54,83.28,18.48,114.84,32.81,31.56,14.34,55.9,31.6,73.06,51.76,17.13,20.17,26.14,43.14,26.98,68.89l.24,7.29c1.05,32.08-12.14,60.76-39.58,86.02-27.43,25.28-63.57,43.74-108.41,55.4l219.83,196.83h-330.68l-162.35-167.67h-63.59l5.49,167.67h-292.53l-16.7-510.3Zm369.53,236.93c41.44,0,74.22-5.71,98.36-17.13,24.11-11.41,35.91-25.39,35.37-41.92l-.19-5.83c-.51-15.55-12.93-27.94-37.25-37.18-24.32-9.23-56.76-13.85-97.25-13.85h-83.38l3.79,115.91h80.55Z"/>
  <path class="s" d="m451.76,541.81c-65.95,0-125.5-6.08-178.65-18.23-53.17-12.14-98.96-29.52-137.37-52.12-38.43-22.6-68.29-49.69-89.57-81.28-21.3-31.59-32.56-66.58-33.82-104.98l-.43-13.12c-1.26-38.39,9.61-73.5,32.59-105.34,22.98-31.83,56-59.29,99.05-82.38,43.05-23.08,94.98-40.94,155.82-53.58,60.81-12.63,128.44-18.95,202.88-18.95h18.37c85.72,0,164.47,9.97,236.27,29.89,71.77,19.93,133.74,49.09,185.87,87.48l-220.84,74.36c-26.2-23.33-55.26-40.1-87.14-50.3-31.91-10.21-66.21-15.31-102.96-15.31h-18.37c-31.09,0-59.03,3.28-83.76,9.84-24.76,6.56-45.9,15.67-63.4,27.34-17.53,11.66-30.74,25.64-39.61,41.92-8.9,16.29-13.01,34.15-12.38,53.58l.5,15.31c1.32,40.35,20.73,72.17,58.24,95.5,37.5,23.33,89.22,34.99,155.18,34.99h19.79c20.71,0,40.23-1.57,58.49-4.74,18.27-3.16,34.39-7.04,48.37-11.66,13.98-4.61,25.12-9.59,33.43-14.94,8.31-5.34,12.39-10.21,12.24-14.58l-.21-6.56h-165.34l-3.87-118.1h425.37l9.38,286.5h-206.32c-6.75-4.37-12.89-12.03-18.42-22.96-5.55-10.94-8.96-21.51-10.22-31.71-7.27,8.75-19.23,17.02-35.93,24.79-16.7,7.78-36.5,14.58-59.39,20.41-22.91,5.83-47.95,10.45-75.15,13.85-27.23,3.39-54.95,5.1-83.21,5.1h-25.44Z"/>
</svg>