<?xml version="1.0" encoding="UTF-8"?>
<svg id="b" data-name="Layer 2" xmlns="http://www.w3.org/2000/svg" xmlns:xlink="http://www.w3.org/1999/xlink" viewBox="0 0 85.95 43.716">
  <defs>
    <filter id="d" data-name="drop-shadow-1" filterUnits="userSpaceOnUse">
      <feOffset dx="1.339" dy="1.339"/>
      <feGaussianBlur result="e" stdDeviation="1.339"/>
      <feFlood flood-color="#000" flood-opacity=".37"/>
      <feComposite in2="e" operator="in"/>
      <feComposite in="SourceGraphic"/>
    </filter>
  </defs>
  <g id="c" data-name="favicon">
    <g>
      <polygon points=".755 14.718 43.1 37.013 85.223 14.855 84.78 18.957 43.234 43.016 1.335 19.123 .755 14.718" stroke="#fff" stroke-miterlimit="10" stroke-width="1.214"/>
      <path d="m40.943,33.27c-3.641,0-6.928-.336-9.861-1.006-2.935-.67-5.462-1.63-7.583-2.877-2.121-1.247-3.769-2.743-4.944-4.487-1.176-1.744-1.797-3.675-1.867-5.795l-.024-.724c-.069-2.119.53-4.057,1.799-5.815,1.268-1.757,3.091-3.273,5.467-4.547,2.377-1.274,5.243-2.26,8.601-2.958,3.357-.697,7.09-1.046,11.199-1.046h1.014c4.731,0,9.079.55,13.042,1.65,3.962,1.1,7.382,2.71,10.26,4.829l-12.19,4.104c-1.446-1.288-3.05-2.213-4.81-2.777-1.761-.563-3.655-.845-5.683-.845h-1.014c-1.716,0-3.258.181-4.624.543-1.367.362-2.534.865-3.5,1.509-.967.644-1.697,1.415-2.187,2.314-.491.899-.718,1.885-.683,2.958l.028.845c.073,2.227,1.144,3.984,3.215,5.271,2.07,1.288,4.925,1.932,8.566,1.932h1.092c1.143,0,2.22-.087,3.229-.262,1.008-.174,1.898-.389,2.67-.644.772-.255,1.387-.529,1.845-.825.458-.295.684-.563.676-.805l-.012-.362h-9.127l-.213-6.519h23.48l.518,15.814h-11.389c-.372-.241-.712-.664-1.017-1.268-.306-.604-.495-1.187-.564-1.75-.401.483-1.061.939-1.983,1.368-.922.429-2.015.805-3.278,1.127-1.264.322-2.647.577-4.148.765-1.503.187-3.033.282-4.593.282h-1.404Z" filter="url(#d)" stroke="#fff" stroke-miterlimit="10" stroke-width="1.305"/>
    </g>
  </g>
</svg>